<svg xmlns="http://www.w3.org/2000/svg" version="1.1" xmlns:xlink="http://www.w3.org/1999/xlink" xmlns:svgjs="http://svgjs.dev/svgjs" viewBox="0 0 800 800"><defs><linearGradient x1="50%" y1="0%" x2="50%" y2="100%" id="cccoil-grad"><stop stop-color="hsl(162, 100%, 58%)" stop-opacity="1" offset="0%"></stop><stop stop-color="hsl(270, 73%, 53%)" stop-opacity="1" offset="100%"></stop></linearGradient></defs><g stroke="url(#cccoil-grad)" fill="none" stroke-linecap="round"><circle r="444" cx="400" cy="400" stroke-width="11" stroke-dasharray="2790 2790" transform="rotate(360, 400, 400)" stroke-dashoffset="510" opacity="0.05"></circle><circle r="425.5" cx="400" cy="400" stroke-width="11" stroke-dasharray="2557 2673" transform="rotate(344, 400, 400)" stroke-dashoffset="510" opacity="0.09"></circle><circle r="407" cx="400" cy="400" stroke-width="11" stroke-dasharray="2335 2557" transform="rotate(329, 400, 400)" stroke-dashoffset="510" opacity="0.13"></circle><circle r="388.5" cx="400" cy="400" stroke-width="11" stroke-dasharray="2123 2441" transform="rotate(313, 400, 400)" stroke-dashoffset="510" opacity="0.17"></circle><circle r="370" cx="400" cy="400" stroke-width="11" stroke-dasharray="1920 2325" transform="rotate(297, 400, 400)" stroke-dashoffset="510" opacity="0.22"></circle><circle r="351.5" cx="400" cy="400" stroke-width="11" stroke-dasharray="1728 2209" transform="rotate(282, 400, 400)" stroke-dashoffset="510" opacity="0.26"></circle><circle r="333" cx="400" cy="400" stroke-width="11" stroke-dasharray="1546 2092" transform="rotate(266, 400, 400)" stroke-dashoffset="510" opacity="0.30"></circle><circle r="314.5" cx="400" cy="400" stroke-width="11" stroke-dasharray="1375 1976" transform="rotate(250, 400, 400)" stroke-dashoffset="510" opacity="0.34"></circle><circle r="296" cx="400" cy="400" stroke-width="11" stroke-dasharray="1213 1860" transform="rotate(235, 400, 400)" stroke-dashoffset="510" opacity="0.38"></circle><circle r="277.5" cx="400" cy="400" stroke-width="11" stroke-dasharray="1061 1744" transform="rotate(219, 400, 400)" stroke-dashoffset="510" opacity="0.42"></circle><circle r="259" cx="400" cy="400" stroke-width="11" stroke-dasharray="920 1627" transform="rotate(203, 400, 400)" stroke-dashoffset="510" opacity="0.46"></circle><circle r="240.5" cx="400" cy="400" stroke-width="11" stroke-dasharray="788 1511" transform="rotate(188, 400, 400)" stroke-dashoffset="510" opacity="0.50"></circle><circle r="222" cx="400" cy="400" stroke-width="11" stroke-dasharray="667 1395" transform="rotate(172, 400, 400)" stroke-dashoffset="510" opacity="0.55"></circle><circle r="203.5" cx="400" cy="400" stroke-width="11" stroke-dasharray="556 1279" transform="rotate(157, 400, 400)" stroke-dashoffset="510" opacity="0.59"></circle><circle r="185" cx="400" cy="400" stroke-width="11" stroke-dasharray="455 1162" transform="rotate(141, 400, 400)" stroke-dashoffset="510" opacity="0.63"></circle><circle r="166.5" cx="400" cy="400" stroke-width="11" stroke-dasharray="364 1046" transform="rotate(125, 400, 400)" stroke-dashoffset="510" opacity="0.67"></circle><circle r="148" cx="400" cy="400" stroke-width="11" stroke-dasharray="283 930" transform="rotate(110, 400, 400)" stroke-dashoffset="510" opacity="0.71"></circle><circle r="129.5" cx="400" cy="400" stroke-width="11" stroke-dasharray="212 814" transform="rotate(94, 400, 400)" stroke-dashoffset="510" opacity="0.75"></circle><circle r="111" cx="400" cy="400" stroke-width="11" stroke-dasharray="152 697" transform="rotate(78, 400, 400)" stroke-dashoffset="510" opacity="0.79"></circle><circle r="92.5" cx="400" cy="400" stroke-width="11" stroke-dasharray="101 581" transform="rotate(63, 400, 400)" stroke-dashoffset="510" opacity="0.83"></circle><circle r="74" cx="400" cy="400" stroke-width="11" stroke-dasharray="61 465" transform="rotate(47, 400, 400)" stroke-dashoffset="510" opacity="0.88"></circle><circle r="55.5" cx="400" cy="400" stroke-width="11" stroke-dasharray="30 349" transform="rotate(31, 400, 400)" stroke-dashoffset="510" opacity="0.92"></circle><circle r="37" cx="400" cy="400" stroke-width="11" stroke-dasharray="10 232" transform="rotate(16, 400, 400)" stroke-dashoffset="510" opacity="0.96"></circle><circle r="18.5" cx="400" cy="400" stroke-width="11" stroke-dasharray="0 116" stroke-dashoffset="510" opacity="1.00"></circle></g></svg>